<svg xmlns="http://www.w3.org/2000/svg" viewBox="-64 -64 128 128">
	<rect x="-60" y="-60" width="120" height="120" rx="32" fill="#FED" stroke="#741" stroke-width="8" />
	<path fill="#741" d="M-10.51 35.14L-30.10 35.14L-30.10 32.26Q-27.12 32.26-25.97 30.77Q-24.82 29.28-24.62 26.64Q-24.43 24.00-24.43 20.54L-24.43 20.54L-24.53-8.74L-32.40-8.54L-32.40-12.86L-24.53-12.86L-24.53-14.88Q-24.53-25.54-20.64-31.68Q-16.75-37.82-7.25-37.82L-7.25-37.82Q-5.14-37.82-2.78-37.10Q-0.43-36.38 1.30-34.80Q3.02-33.22 3.02-30.72L3.02-30.72Q3.02-28.90 2.02-27.65Q1.01-26.40-0.91-26.40L-0.91-26.40Q-3.22-26.30-4.13-27.79Q-5.04-29.28-5.04-30.34L-5.04-30.34Q-5.04-30.91-4.94-31.49Q-4.85-32.06-4.56-32.74L-4.56-32.74Q-5.23-33.60-6.43-33.98Q-7.63-34.37-8.69-34.37L-8.69-34.37Q-11.66-34.37-13.30-32.64Q-14.93-30.91-15.60-28.32Q-16.27-25.73-16.27-22.94L-16.27-22.94L-16.18 24.96Q-16.18 26.88-16.22 28.37Q-16.27 29.86-16.56 31.49L-16.56 31.49Q-15.02 31.39-13.54 31.34Q-12.05 31.30-10.51 31.20L-10.51 31.20L-10.51 35.14ZM19.92 36.67L19.92 36.67Q17.71 36.67 15.41 36.05Q13.10 35.42 11.14 33.60Q9.17 31.78 8.02 28.27Q6.86 24.77 6.86 19.01L6.86 19.01L7.06-8.83L-0.34-8.74L-0.34-12.86Q2.16-12.96 4.75-14.74Q7.34-16.51 9.41-19.58Q11.47-22.66 12.24-26.30L12.24-26.30L15.50-26.30L15.50-12.86L31.63-12.86L31.63-9.12L15.50-8.93L15.31 17.76Q15.31 22.08 16.03 25.10Q16.75 28.13 18.38 29.66Q20.02 31.20 22.61 31.20L22.61 31.20Q25.30 31.20 27.65 29.66Q30.00 28.13 31.82 25.44L31.82 25.44L34.42 27.55Q32.30 30.72 30.24 32.54Q28.18 34.37 26.26 35.28Q24.34 36.19 22.70 36.43Q21.07 36.67 19.92 36.67Z" />
</svg>
